<?xml version="1.0" encoding="utf-8"?>
<!-- Svg Vector Icons : http://www.onlinewebfonts.com/icon -->
<!DOCTYPE svg PUBLIC "-//W3C//DTD SVG 1.1//EN" "http://www.w3.org/Graphics/SVG/1.1/DTD/svg11.dtd">
<svg version="1.1" xmlns="http://www.w3.org/2000/svg" xmlns:xlink="http://www.w3.org/1999/xlink" x="0px" y="0px" viewBox="0 0 1000 1000" enable-background="new 0 0 1000 1000" xml:space="preserve">
<metadata> Svg Vector Icons : http://www.onlinewebfonts.com/icon </metadata>
<g><path d="M820.5,587.9"/><path d="M944.1,285.6H55.9c-25.4,0-45.9,20.6-45.9,45.9v336.9c0,25.4,20.6,45.9,45.9,45.9h888.1c25.4,0,45.9-20.6,45.9-45.9V331.6C990,306.2,969.4,285.6,944.1,285.6z M265.9,515l-112.6,92.7c-10,8.3-18.3,4.4-18.3-8.6V400.9c0-13,8.2-16.9,18.3-8.6L265.9,485C276,493.2,276,506.8,265.9,515z M959.4,658c0,14.2-10.6,25.7-23.7,25.7H408.5c-13,0-23.7-11.6-23.7-25.7V342c0-14.2,10.6-25.7,23.7-25.7h527.2c13,0,23.7,11.6,23.7,25.7V658z"/><path d="M697.3,392.4c-2.3-9.1-10.2-15.6-19.6-16.1c-9.4-0.5-18,5.1-21.3,13.8l-57.2,151.6l-57.2-151.6c-3.3-8.7-12-14.4-21.3-13.8c-9.4,0.5-17.3,7.1-19.6,16.1l-51.6,204.9c-2.9,11.4,4.1,23,15.6,25.9c11.5,2.9,23.2-4.1,26.1-15.5l34.8-138.4l53.1,140.7c3.1,8.3,11.2,13.8,20.1,13.8c9,0,17-5.5,20.1-13.8l53.1-140.7l34.8,138.4c2.4,9.7,11.2,16.2,20.8,16.2c1.7,0,3.5-0.2,5.2-0.6c11.5-2.9,18.5-14.4,15.6-25.9L697.3,392.4z"/><path d="M879.3,376.9c-11.5-2.9-23.2,4.1-26.1,15.5l-30.7,122.1l-30.7-122.1c-2.9-11.4-14.5-18.4-26.1-15.5c-11.5,2.9-18.5,14.4-15.6,25.9l51.6,204.9c2.4,9.5,11,16.2,20.8,16.2c9.9,0,18.5-6.7,20.8-16.2L895,402.7C897.8,391.3,890.8,379.7,879.3,376.9z"/></g>
</svg>